<svg width="121" height="36" viewBox="0 0 121 36" fill="none" xmlns="http://www.w3.org/2000/svg">
<path d="M111.364 0.000117H9.64112C9.27033 0.000117 8.90399 0.000117 8.53417 0.001917C8.22461 0.003717 7.9175 0.008946 7.60496 0.013347C6.92598 0.0204586 6.2486 0.0736256 5.57869 0.172386C4.90973 0.273296 4.26172 0.463541 3.65659 0.736686C3.0522 1.01214 2.49995 1.37006 2.01987 1.79748C1.53728 2.22369 1.13499 2.71633 0.828497 3.25646C0.521154 3.79551 0.308041 4.37316 0.19652 4.96945C0.0839377 5.56498 0.0233562 6.16738 0.0153191 6.77125C0.00593553 7.04719 0.00494459 7.32404 0 7.60002V28.4028C0.00494459 28.6823 0.00593553 28.953 0.0153191 29.2325C0.0233587 29.8364 0.0839401 30.4387 0.19652 31.0342C0.307734 31.6309 0.520859 32.2088 0.828497 32.7481C1.13486 33.2865 1.53719 33.7771 2.01987 34.201C2.49813 34.6303 3.05073 34.9885 3.65659 35.2618C4.26172 35.5357 4.90966 35.7271 5.57869 35.8295C6.24871 35.9275 6.92603 35.9807 7.60496 35.9886C7.9175 35.9948 8.22461 35.9983 8.53417 35.9983C8.90398 36.0001 9.27035 36.0001 9.64112 36.0001H111.364C111.728 36.0001 112.097 36.0001 112.46 35.9983C112.769 35.9983 113.085 35.9948 113.393 35.9886C114.07 35.9811 114.746 35.9279 115.415 35.8295C116.086 35.7263 116.736 35.535 117.344 35.2618C117.95 34.9883 118.502 34.6301 118.98 34.201C119.461 33.7755 119.864 33.2852 120.174 32.7481C120.48 32.2085 120.691 31.6305 120.8 31.0342C120.913 30.4386 120.976 29.8364 120.988 29.2325C120.992 28.953 120.992 28.6823 120.992 28.4028C121 28.0758 121 27.7507 121 27.4184V8.58263C121 8.25304 121 7.92609 120.992 7.60002C120.992 7.32404 120.992 7.04719 120.988 6.77121C120.976 6.16729 120.913 5.56503 120.8 4.96941C120.691 4.37347 120.48 3.79587 120.174 3.25642C119.55 2.17379 118.561 1.29254 117.344 0.736605C116.736 0.464127 116.086 0.273933 115.415 0.172305C114.746 0.0731095 114.07 0.0199239 113.393 0.013221C113.085 0.008829 112.769 0.003555 112.46 0.0018C112.097 0 111.728 0 111.364 0V0.000117Z" fill="#A6A6A6"/>
<path d="M8.53916 35.2126C8.23108 35.2126 7.93044 35.209 7.62478 35.2029C6.99157 35.1956 6.35984 35.1465 5.73477 35.0561C5.15193 34.9668 4.58731 34.8006 4.05954 34.563C3.5366 34.3274 3.05965 34.0185 2.64694 33.6481C2.22826 33.282 1.87969 32.8575 1.61504 32.3912C1.34747 31.922 1.1623 31.419 1.06597 30.8998C0.961951 30.3419 0.90567 29.7777 0.897617 29.2123C0.891206 29.0224 0.882812 28.3905 0.882812 28.3905V7.6C0.882812 7.6 0.891751 6.97773 0.897667 6.79491C0.905378 6.23033 0.961332 5.66708 1.06504 5.11005C1.16155 4.58942 1.34686 4.08497 1.61457 3.61416C1.87825 3.14824 2.22488 2.72337 2.64104 2.35601C3.05674 1.98515 3.53522 1.67464 4.05904 1.43578C4.5856 1.19898 5.14915 1.03395 5.73082 0.946241C6.35794 0.85495 6.99186 0.805594 7.62727 0.798587L8.53966 0.787598H112.456L113.379 0.799028C114.008 0.805687 114.637 0.854603 115.258 0.945359C115.846 1.03417 116.415 1.20035 116.948 1.43842C117.997 1.91978 118.851 2.68134 119.389 3.61636C119.653 4.08391 119.835 4.58425 119.931 5.10038C120.036 5.66199 120.094 6.22966 120.106 6.79887C120.109 7.05375 120.109 7.32753 120.109 7.6C120.117 7.9375 120.117 8.25874 120.117 8.58261V27.4184C120.117 27.7453 120.117 28.0644 120.109 28.3861C120.109 28.6787 120.109 28.9468 120.105 29.2228C120.094 29.7818 120.036 30.3394 119.933 30.8909C119.838 31.4139 119.654 31.9208 119.387 32.3939C119.12 32.8551 118.773 33.276 118.36 33.6411C117.947 34.0135 117.469 34.3242 116.945 34.5613C116.413 34.8007 115.845 34.9675 115.258 35.0561C114.633 35.147 114.001 35.1961 113.368 35.2029C113.072 35.209 112.762 35.2126 112.46 35.2126L111.364 35.2144L8.53916 35.2126Z" fill="black"/>
<path d="M25.0455 18.2709C25.0564 17.5197 25.2806 16.7832 25.6972 16.1298C26.1138 15.4764 26.7094 14.9275 27.4284 14.534C26.9716 13.9534 26.369 13.4755 25.6684 13.1384C24.9679 12.8014 24.1887 12.6143 23.3927 12.5921C21.6947 12.4335 20.0486 13.4965 19.1833 13.4965C18.3013 13.4965 16.9691 12.6079 15.5345 12.6341C14.6066 12.6608 13.7023 12.901 12.9096 13.3312C12.117 13.7615 11.4631 14.3672 11.0117 15.0892C9.05604 18.1028 10.5148 22.5318 12.388 24.9677C13.3253 26.1605 14.4207 27.4929 15.8539 27.4457C17.2565 27.3939 17.7803 26.6496 19.4733 26.6496C21.1506 26.6496 21.642 27.4457 23.1044 27.4156C24.6094 27.3939 25.5576 26.2175 26.462 25.0134C27.1354 24.1635 27.6536 23.2241 27.9973 22.2301C27.123 21.901 26.3768 21.35 25.8519 20.646C25.327 19.9419 25.0465 19.1159 25.0455 18.2709Z" fill="white"/>
<path d="M22.2838 10.9899C23.1044 10.1131 23.5086 8.9862 23.4107 7.84839C22.1571 7.96559 20.999 8.4989 20.1674 9.34204C19.7607 9.75394 19.4493 10.2331 19.2508 10.7522C19.0524 11.2713 18.9709 11.8201 19.0109 12.3672C19.6379 12.373 20.2583 12.252 20.8252 12.0134C21.3921 11.7749 21.8908 11.4249 22.2838 10.9899Z" fill="white"/>
<path d="M42.7744 24.4257H37.9882L36.8388 27.4465H34.8115L39.345 16.2703H41.4512L45.9847 27.4465H43.9228L42.7744 24.4257ZM38.4839 23.0318H42.2778L40.4075 18.1292H40.3552L38.4839 23.0318Z" fill="white"/>
<path d="M55.7759 23.3728C55.7759 25.9049 54.2532 27.5317 51.9554 27.5317C51.3733 27.5588 50.7944 27.4395 50.285 27.1874C49.7756 26.9352 49.3562 26.5605 49.075 26.1061H49.0315V30.1421H47.1523V19.2981H48.9713V20.6534H49.0058C49.3 20.2012 49.7265 19.8284 50.2398 19.5748C50.7531 19.3211 51.334 19.196 51.9208 19.2129C54.2443 19.2129 55.7759 20.8477 55.7759 23.3728ZM53.8444 23.3728C53.8444 21.7231 52.8866 20.6385 51.4251 20.6385C49.9894 20.6385 49.0236 21.7459 49.0236 23.3728C49.0236 25.0146 49.9894 26.1141 51.4251 26.1141C52.8866 26.1141 53.8444 25.0374 53.8444 23.3728Z" fill="white"/>
<path d="M65.8511 23.3727C65.8511 25.9049 64.3284 27.5317 62.0306 27.5317C61.4485 27.5588 60.8696 27.4395 60.3602 27.1874C59.8508 26.9352 59.4314 26.5605 59.1502 26.1061H59.1067V30.1421H57.2275V19.2981H59.0464V20.6534H59.081C59.3752 20.2012 59.8016 19.8284 60.3149 19.5748C60.8282 19.3211 61.4092 19.196 61.996 19.2129C64.3195 19.2129 65.8511 20.8476 65.8511 23.3727ZM63.9196 23.3727C63.9196 21.723 62.9618 20.6385 61.5003 20.6385C60.0645 20.6385 59.0988 21.7459 59.0988 23.3727C59.0988 25.0145 60.0645 26.1141 61.5003 26.1141C62.9618 26.1141 63.9196 25.0374 63.9196 23.3727Z" fill="white"/>
<path d="M72.5105 24.3326C72.6498 25.4409 73.8594 26.1686 75.5124 26.1686C77.0963 26.1686 78.2359 25.4409 78.2359 24.4416C78.2359 23.5741 77.5486 23.0547 75.9212 22.6987L74.2939 22.3498C71.9882 21.8541 70.9177 20.8943 70.9177 19.3369C70.9177 17.4086 72.8058 16.084 75.4867 16.084C78.14 16.084 79.959 17.4086 80.0202 19.3369H78.1233C78.0097 18.2215 76.9738 17.5483 75.4601 17.5483C73.9463 17.5483 72.9104 18.2295 72.9104 19.2209C72.9104 20.011 73.572 20.4759 75.1905 20.8319L76.5739 21.1342C79.1502 21.6765 80.2206 22.5976 80.2206 24.2324C80.2206 26.3233 78.3494 27.6328 75.3732 27.6328C72.5885 27.6328 70.7084 26.354 70.5869 24.3325L72.5105 24.3326Z" fill="white"/>
<path d="M84.2767 17.3699V19.2983H86.0176V20.6228H84.2767V25.1148C84.2767 25.8127 84.6253 26.1379 85.3906 26.1379C85.5973 26.1347 85.8036 26.1218 86.0088 26.0992V27.4158C85.6647 27.473 85.315 27.4989 84.965 27.4931C83.1115 27.4931 82.3887 26.8735 82.3887 25.2932V20.6228H81.0576V19.2983H82.3887V17.3699H84.2767Z" fill="white"/>
<path d="M87.0254 23.3728C87.0254 20.809 88.7218 19.198 91.3673 19.198C94.0216 19.198 95.7101 20.809 95.7101 23.3728C95.7101 25.9436 94.0305 27.5476 91.3673 27.5476C88.705 27.5476 87.0254 25.9436 87.0254 23.3728ZM93.7954 23.3728C93.7954 21.6141 92.8899 20.5761 91.3673 20.5761C89.8446 20.5761 88.9401 21.622 88.9401 23.3728C88.9401 25.1385 89.8446 26.1686 91.3673 26.1686C92.8899 26.1686 93.7954 25.1385 93.7954 23.3728Z" fill="white"/>
<path d="M97.2598 19.2981H99.052V20.685H99.0955C99.2168 20.2518 99.5019 19.869 99.9029 19.6009C100.304 19.3328 100.796 19.1958 101.298 19.2128C101.514 19.2121 101.73 19.2331 101.941 19.2752V20.8397C101.668 20.7653 101.383 20.7312 101.097 20.7386C100.824 20.7287 100.552 20.7716 100.299 20.8642C100.047 20.9568 99.8195 21.0969 99.6335 21.275C99.4475 21.4531 99.3069 21.665 99.2216 21.896C99.1362 22.127 99.108 22.3717 99.1389 22.6133V27.4464H97.2598V19.2981Z" fill="white"/>
<path d="M110.606 25.0532C110.353 26.5324 108.735 27.5476 106.664 27.5476C104.001 27.5476 102.348 25.9594 102.348 23.4114C102.348 20.8556 104.01 19.198 106.585 19.198C109.118 19.198 110.71 20.7466 110.71 23.2172V23.7902H104.245V23.8913C104.215 24.1912 104.257 24.4933 104.368 24.7775C104.48 25.0618 104.658 25.3217 104.891 25.54C105.124 25.7583 105.406 25.93 105.719 26.0437C106.033 26.1573 106.369 26.2104 106.707 26.1993C107.151 26.2363 107.597 26.1448 107.978 25.9383C108.359 25.7318 108.655 25.4214 108.821 25.0532H110.606ZM104.253 22.6213H108.83C108.847 22.3517 108.801 22.0818 108.695 21.8287C108.59 21.5756 108.426 21.3448 108.215 21.1506C108.004 20.9564 107.751 20.8031 107.47 20.7003C107.19 20.5975 106.888 20.5474 106.585 20.5532C106.279 20.5516 105.976 20.6039 105.692 20.7072C105.409 20.8105 105.152 20.9626 104.935 21.1549C104.718 21.3472 104.546 21.5757 104.429 21.8274C104.312 22.0791 104.253 22.3489 104.253 22.6213Z" fill="white"/>
<path d="M37.1483 10.1281H37.9551C38.094 10.1435 38.2349 10.1331 38.3691 10.0976C38.5032 10.0621 38.6276 10.0023 38.7345 9.92188C38.8414 9.84146 38.9284 9.7422 38.99 9.63037C39.0517 9.51853 39.0866 9.39654 39.0926 9.27209C39.0926 8.77683 38.674 8.45691 37.964 8.45691C37.8217 8.43921 37.6769 8.44707 37.538 8.48002C37.3992 8.51297 37.2692 8.57033 37.1557 8.64874C37.0422 8.72714 36.9476 8.82499 36.8773 8.93651C36.807 9.04802 36.7625 9.17095 36.7464 9.29802H35.8606C35.8759 9.06735 35.9443 8.84194 36.0617 8.63583C36.179 8.42972 36.3428 8.24732 36.5428 8.09999C36.7428 7.95266 36.9747 7.84354 37.2241 7.77945C37.4736 7.71535 37.7351 7.69764 37.9926 7.72741C39.1805 7.72741 40.0169 8.31935 40.0169 9.17145C40.0197 9.45691 39.9124 9.73459 39.7129 9.95813C39.5135 10.1816 39.2339 10.3375 38.9208 10.3997V10.463C39.2919 10.4776 39.6414 10.6224 39.8929 10.8658C40.1444 11.1091 40.2774 11.4312 40.2628 11.7616C40.2353 11.9991 40.1549 12.2293 40.0262 12.4388C39.8974 12.6482 39.723 12.8327 39.5131 12.9814C39.3033 13.1301 39.0622 13.24 38.8039 13.3047C38.5457 13.3694 38.2756 13.3875 38.0094 13.3581C37.7426 13.3905 37.4713 13.3747 37.2115 13.3117C36.9518 13.2488 36.7089 13.1399 36.4974 12.9916C36.2859 12.8433 36.1102 12.6586 35.9806 12.4486C35.851 12.2386 35.7703 12.0074 35.7432 11.769H36.6427C36.6971 12.2827 37.2273 12.6141 38.0094 12.6141C38.7915 12.6141 39.302 12.2419 39.302 11.7172C39.302 11.185 38.8211 10.8572 37.9808 10.8572H37.1483V10.1281Z" fill="white"/>
<path d="M41.2852 12.0819C41.2852 11.3524 41.8964 10.9318 42.9787 10.8721L44.212 10.8088V10.459C44.212 10.031 43.895 9.78931 43.2798 9.78931C42.7782 9.78931 42.4316 9.95323 42.3309 10.2397H41.4609C41.5528 9.54366 42.2894 9.09717 43.3223 9.09717C44.4638 9.09717 45.1076 9.60297 45.1076 10.459V13.228H44.2416V12.6585H44.1705C44.0262 12.8627 43.8236 13.0293 43.5833 13.1411C43.343 13.2529 43.0737 13.3059 42.8029 13.2948C42.6118 13.3124 42.4186 13.2943 42.2358 13.2415C42.053 13.1886 41.8847 13.1023 41.7417 12.988C41.5987 12.8738 41.4842 12.7341 41.4056 12.578C41.3269 12.4219 41.2859 12.2529 41.2852 12.0819ZM44.212 11.7356V11.3968L43.1001 11.4601C42.473 11.4974 42.1886 11.6873 42.1886 12.0445C42.1886 12.4093 42.5441 12.6215 43.033 12.6215C43.1762 12.6344 43.3209 12.6216 43.4584 12.5837C43.5959 12.5458 43.7235 12.4837 43.8335 12.401C43.9435 12.3184 44.0337 12.2169 44.0987 12.1025C44.1638 11.9882 44.2023 11.8634 44.212 11.7356Z" fill="white"/>
<path d="M47.4922 9.84853V13.2279H46.5938V9.17529H49.5917V9.84849L47.4922 9.84853Z" fill="white"/>
<path d="M55.0372 11.1998C55.0372 12.4874 54.3055 13.2947 53.1561 13.2947C52.8739 13.3118 52.5921 13.2569 52.3439 13.1363C52.0956 13.0157 51.8913 12.8345 51.7549 12.614H51.6837V14.5753H50.7852V9.1753H51.6502V9.84505H51.7173C51.8562 9.61685 52.0632 9.42725 52.3156 9.2972C52.5679 9.16715 52.8557 9.1017 53.1472 9.10809C54.3055 9.10806 55.0372 9.91182 55.0372 11.1998ZM54.1129 11.1998C54.1129 10.3438 53.6577 9.82657 52.8964 9.82657C52.14 9.82657 51.667 10.3547 51.667 11.2033C51.667 12.048 52.14 12.5766 52.8924 12.5766C53.6577 12.5766 54.1129 12.0594 54.1129 11.1998Z" fill="white"/>
<path d="M56.2337 14.6794V13.9908C56.3309 14.0018 56.4289 14.0068 56.5269 14.0057C56.7184 14.0183 56.9083 13.9676 57.0603 13.8632C57.2123 13.7588 57.3156 13.6082 57.3505 13.4401L57.4176 13.2428L55.7695 9.17529H56.7481L57.8897 12.3942H57.9608L59.0983 9.17529H60.0512L58.3538 13.3953C57.9647 14.3815 57.5342 14.6979 56.606 14.6979C56.5309 14.6979 56.3176 14.6904 56.2337 14.6794Z" fill="white"/>
<path d="M60.752 12.078H61.6466C61.7345 12.4353 62.1107 12.6216 62.637 12.6216C63.2354 12.6216 63.6028 12.387 63.6028 12.0222C63.6028 11.6316 63.273 11.4452 62.637 11.4452H61.9557V10.8238H62.6252C63.1683 10.8238 63.4448 10.638 63.4448 10.2991C63.4448 10.0016 63.1772 9.77449 62.6252 9.77449C62.1226 9.77449 61.7552 9.96434 61.6969 10.2842H60.831C60.8957 9.91665 61.1199 9.58633 61.4555 9.36436C61.791 9.14239 62.211 9.04649 62.6252 9.09729C63.7074 9.09729 64.3266 9.5328 64.3266 10.2174C64.3316 10.4081 64.263 10.5945 64.1321 10.7455C64.0013 10.8965 63.8162 11.003 63.6077 11.0471V11.1104C63.8559 11.1389 64.0837 11.2475 64.2479 11.4156C64.412 11.5836 64.5012 11.7995 64.4984 12.0222C64.4984 12.7926 63.7617 13.3024 62.637 13.3024C61.6426 13.3023 60.8349 12.8967 60.752 12.078Z" fill="white"/>
<path d="M65.792 13.2279V9.17529H66.6827V11.9627H66.7538L68.8521 9.1753H69.7428V13.2279H68.8521V10.4255H68.785L66.6827 13.2279H65.792Z" fill="white"/>
<path d="M74.6501 9.84874H73.2162V13.2281H72.3166V9.84874H70.8828V9.17554H74.6501V9.84874Z" fill="white"/>
<path d="M79.4902 12.1338C79.3678 12.5042 79.103 12.8245 78.7422 13.0388C78.3814 13.2531 77.9475 13.3478 77.5163 13.3063C77.2163 13.3133 76.9182 13.2622 76.6426 13.1564C76.3671 13.0506 76.1207 12.8928 75.9206 12.6937C75.7205 12.4947 75.5714 12.2593 75.4838 12.0039C75.3961 11.7484 75.3719 11.4791 75.413 11.2145C75.373 10.9491 75.3976 10.6791 75.4851 10.4229C75.5725 10.1667 75.7208 9.93029 75.9199 9.72953C76.1189 9.52876 76.3641 9.36841 76.6389 9.25932C76.9136 9.15023 77.2115 9.09496 77.5123 9.09724C78.7792 9.09724 79.5445 9.86764 79.5445 11.1402V11.4193H76.3293V11.4641C76.3151 11.6129 76.336 11.7626 76.3907 11.9038C76.4453 12.0449 76.5326 12.1743 76.6468 12.2836C76.761 12.393 76.8996 12.4798 77.0538 12.5387C77.2079 12.5975 77.3742 12.6269 77.5419 12.6251C77.7567 12.648 77.9743 12.6135 78.167 12.526C78.3598 12.4385 78.5189 12.302 78.6242 12.1338H79.4902ZM76.3293 10.8278H78.6281C78.6395 10.6918 78.6188 10.5553 78.5673 10.4269C78.5159 10.2985 78.4348 10.1811 78.3294 10.0822C78.2239 9.98339 78.0964 9.90524 77.955 9.85284C77.8136 9.80044 77.6615 9.77493 77.5084 9.77797C77.3529 9.77608 77.1986 9.80196 77.0546 9.85405C76.9105 9.90615 76.7797 9.98342 76.6698 10.0812C76.5599 10.1791 76.4731 10.2956 76.4146 10.4238C76.3562 10.552 76.3272 10.6894 76.3293 10.8278Z" fill="white"/>
<path d="M83.2998 9.17529H85.3527C86.2434 9.17529 86.7658 9.57695 86.7658 10.2057C86.7672 10.4053 86.6915 10.5992 86.5515 10.755C86.4115 10.9109 86.2156 11.0192 85.9966 11.0618V11.1251C86.2625 11.14 86.5118 11.2453 86.693 11.4192C86.8742 11.5931 86.9734 11.8222 86.9702 12.0594C86.9702 12.7664 86.3728 13.2279 85.3735 13.2279H83.2998V9.17529ZM84.1905 9.78921V10.8386H85.0812C85.6243 10.8386 85.884 10.6527 85.884 10.3099C85.884 9.99398 85.6579 9.7892 85.1809 9.7892L84.1905 9.78921ZM84.1905 11.4266V12.614H85.256C85.7873 12.614 86.0717 12.4052 86.0717 12.022C86.0717 11.6164 85.7498 11.4266 85.1434 11.4266H84.1905Z" fill="white"/>
</svg>
