<svg width="122" height="36" viewBox="0 0 122 36" fill="none" xmlns="http://www.w3.org/2000/svg">
<path d="M117.486 0.000244141H5.44926C2.97421 0.000244141 0.967773 2.01496 0.967773 4.50024V31.5002C0.967773 33.9855 2.97421 36.0002 5.44926 36.0002H117.486C119.962 36.0002 121.968 33.9855 121.968 31.5002V4.50024C121.968 2.01496 119.962 0.000244141 117.486 0.000244141Z" fill="black"/>
<path d="M117.486 0.720244C118.485 0.720244 119.442 1.11849 120.149 1.82738C120.854 2.53626 121.251 3.49772 121.251 4.50024V31.5002C121.251 32.5027 120.854 33.4642 120.149 34.1731C119.442 34.882 118.485 35.2802 117.486 35.2802H5.44926C4.45087 35.2802 3.49337 34.882 2.78739 34.1731C2.08142 33.4642 1.68481 32.5027 1.68481 31.5002V4.50024C1.68481 3.49772 2.08142 2.53626 2.78739 1.82738C3.49337 1.11849 4.45087 0.720244 5.44926 0.720244H117.486ZM117.486 0.000244141H5.44926C4.2607 0.000244141 3.12082 0.47435 2.28037 1.31826C1.43993 2.16217 0.967773 3.30677 0.967773 4.50024V31.5002C0.967773 32.6937 1.43993 33.8383 2.28037 34.6822C3.12082 35.5261 4.2607 36.0002 5.44926 36.0002H117.486C118.676 36.0002 119.815 35.5261 120.655 34.6822C121.496 33.8383 121.968 32.6937 121.968 31.5002V4.50024C121.968 3.30677 121.496 2.16217 120.655 1.31826C119.815 0.47435 118.676 0.000244141 117.486 0.000244141Z" fill="#A6A6A6"/>
<path d="M62.041 19.5751C61.2884 19.5787 60.5537 19.806 59.9296 20.2285C59.3055 20.6509 58.82 21.2495 58.5345 21.9488C58.2489 22.648 58.176 23.4165 58.3251 24.1573C58.474 24.8981 58.8382 25.578 59.3717 26.1111C59.9051 26.6442 60.5839 27.0067 61.3223 27.1529C62.0608 27.299 62.8258 27.2222 63.5208 26.9322C64.2157 26.6422 64.8096 26.1519 65.2274 25.5233C65.6452 24.8947 65.8682 24.1559 65.8682 23.4001C65.8755 22.8943 65.7813 22.3921 65.5914 21.9235C65.4014 21.455 65.1195 21.0296 64.7623 20.6727C64.4052 20.3158 63.9803 20.0347 63.5128 19.8461C63.0453 19.6576 62.5447 19.5654 62.041 19.5751ZM62.041 25.7221C61.5781 25.7546 61.1162 25.6465 60.7153 25.412C60.3144 25.1774 59.9931 24.8271 59.7931 24.4067C59.5931 23.9863 59.5236 23.5152 59.5938 23.0546C59.664 22.5941 59.8704 22.1654 60.1865 21.8242C60.5025 21.4831 60.9135 21.2453 61.3658 21.1418C61.8182 21.0383 62.2912 21.0738 62.7232 21.2438C63.1552 21.4137 63.5264 21.7103 63.7884 22.0948C64.0503 22.4794 64.1909 22.9342 64.192 23.4001C64.2065 23.6953 64.162 23.9904 64.061 24.2681C63.9601 24.5457 63.8048 24.8003 63.6043 25.0167C63.4038 25.2331 63.1622 25.407 62.8936 25.5282C62.6252 25.6493 62.3352 25.7153 62.041 25.7221ZM53.6964 19.5751C52.9434 19.5769 52.2078 19.8027 51.5825 20.2241C50.9573 20.6455 50.4704 21.2435 50.1835 21.9426C49.8966 22.6417 49.8224 23.4104 49.9704 24.1518C50.1184 24.8932 50.4819 25.5739 51.015 26.108C51.5481 26.642 52.2269 27.0054 52.9655 27.1523C53.7042 27.2991 54.4697 27.2228 55.1652 26.9331C55.8608 26.6433 56.4552 26.153 56.8733 25.5242C57.2915 24.8954 57.5147 24.1562 57.5147 23.4001C57.522 22.8943 57.4278 22.3921 57.2378 21.9235C57.0479 21.455 56.766 21.0296 56.4089 20.6727C56.0518 20.3158 55.6268 20.0347 55.1592 19.8461C54.6918 19.6576 54.1913 19.5654 53.6874 19.5751H53.6964ZM53.6964 25.7221C53.2334 25.7564 52.7707 25.65 52.3687 25.4166C51.9667 25.1832 51.644 24.8337 51.4425 24.4136C51.2411 23.9935 51.1704 23.5222 51.2394 23.0611C51.3085 22.6 51.5142 22.1705 51.8297 21.8284C52.1452 21.4864 52.5561 21.2476 53.0087 21.1433C53.4612 21.039 53.9346 21.0738 54.3672 21.2434C54.7997 21.413 55.1714 21.7094 55.4339 22.0941C55.6963 22.4788 55.8373 22.9338 55.8386 23.4001C55.8531 23.6953 55.8085 23.9904 55.7075 24.2681C55.6065 24.5457 55.4512 24.8003 55.2507 25.0167C55.0503 25.2331 54.8086 25.407 54.5402 25.5282C54.2717 25.6493 53.9818 25.7153 53.6874 25.7221H53.6964ZM43.7565 20.7541V22.3741H47.6285C47.5678 23.1371 47.2519 23.8571 46.7322 24.4171C46.3448 24.8133 45.8792 25.1237 45.365 25.3283C44.851 25.5329 44.3 25.6272 43.7475 25.6051C42.6065 25.6051 41.5122 25.15 40.7054 24.3398C39.8985 23.5297 39.4453 22.4308 39.4453 21.2851C39.4453 20.1394 39.8985 19.0406 40.7054 18.2304C41.5122 17.4203 42.6065 16.9651 43.7475 16.9651C44.839 16.9472 45.8931 17.3648 46.6784 18.1261L47.8167 16.9831C47.2865 16.444 46.654 16.0173 45.9565 15.7282C45.2591 15.4391 44.511 15.2935 43.7565 15.3001C42.9597 15.269 42.1648 15.3997 41.4195 15.6844C40.6742 15.9691 39.9938 16.4019 39.4191 16.957C38.8444 17.5121 38.3871 18.1779 38.0748 18.9147C37.7626 19.6514 37.6016 20.4439 37.6016 21.2446C37.6016 22.0453 37.7626 22.8378 38.0748 23.5745C38.3871 24.3113 38.8444 24.9771 39.4191 25.5322C39.9938 26.0873 40.6742 26.5201 41.4195 26.8048C42.1648 27.0895 42.9597 27.2202 43.7565 27.1891C44.5237 27.2239 45.2894 27.0933 46.0021 26.8061C46.7148 26.5189 47.358 26.0818 47.8884 25.5241C48.8274 24.4881 49.3288 23.1263 49.2867 21.7261C49.2896 21.385 49.2595 21.0444 49.197 20.7091L43.7565 20.7541ZM84.3677 22.0141C84.1341 21.3236 83.6969 20.7206 83.1143 20.2851C82.5317 19.8495 81.8311 19.6019 81.1053 19.5751C80.6149 19.5741 80.1297 19.6742 79.6794 19.869C79.2292 20.0638 78.8235 20.3493 78.4875 20.7078C78.1514 21.0663 77.8923 21.4902 77.7259 21.9533C77.5595 22.4163 77.4894 22.9088 77.5201 23.4001C77.5092 23.9031 77.5993 24.4032 77.7852 24.8704C77.9711 25.3377 78.2489 25.7625 78.6019 26.1195C78.955 26.4766 79.3761 26.7585 79.84 26.9484C80.3041 27.1384 80.8014 27.2325 81.3025 27.2251C81.9294 27.2285 82.5474 27.0757 83.1011 26.7804C83.6548 26.4851 84.127 26.0566 84.4753 25.5331L83.1757 24.6331C82.9817 24.9578 82.7071 25.2264 82.3788 25.4125C82.0504 25.5987 81.6795 25.6961 81.3025 25.6951C80.9142 25.71 80.5305 25.6072 80.2012 25.4001C79.8719 25.1931 79.6123 24.8913 79.4561 24.5341L84.556 22.4191L84.3677 22.0141ZM79.1692 23.2921C79.1511 23.0137 79.1884 22.7345 79.279 22.4708C79.3697 22.2071 79.5118 21.9642 79.6971 21.7563C79.8824 21.5485 80.1072 21.3798 80.3582 21.2603C80.6092 21.1407 80.8815 21.0727 81.159 21.0601C81.4482 21.041 81.7364 21.1075 81.9882 21.2516C82.24 21.3956 82.4441 21.6106 82.5752 21.8701L79.1692 23.2921ZM75.0283 27.0001H76.7044V15.7501H75.0283V27.0001ZM72.2857 20.4301H72.2229C71.9703 20.1465 71.6609 19.9197 71.3149 19.7646C70.9689 19.6095 70.5941 19.5296 70.2152 19.5301C69.2358 19.5778 68.3121 20.0021 67.6356 20.715C66.9593 21.428 66.5819 22.3749 66.5819 23.3596C66.5819 24.3443 66.9593 25.2912 67.6356 26.0042C68.3121 26.7171 69.2358 27.1414 70.2152 27.1891C70.595 27.1955 70.9717 27.1183 71.3185 26.9628C71.6654 26.8073 71.9741 26.5773 72.2229 26.2891H72.2767V26.8381C72.2767 28.3051 71.497 29.0881 70.2421 29.0881C69.8242 29.0783 69.4186 28.9438 69.0771 28.7018C68.7354 28.4598 68.4734 28.1212 68.3241 27.7291L66.863 28.3411C67.1381 29.0128 67.6066 29.5867 68.2087 29.9892C68.8108 30.3917 69.5188 30.6044 70.2421 30.6001C72.205 30.6001 73.8273 29.4391 73.8273 26.6131V19.8001H72.2857V20.4301ZM70.3676 25.7221C69.7895 25.6709 69.2514 25.4042 68.8594 24.9744C68.4674 24.5446 68.25 23.9829 68.25 23.4001C68.25 22.8173 68.4674 22.2557 68.8594 21.8259C69.2514 21.396 69.7895 21.1293 70.3676 21.0781C70.6542 21.0929 70.9351 21.1651 71.1935 21.2905C71.4519 21.416 71.6828 21.5921 71.8724 21.8085C72.062 22.0248 72.2065 22.2771 72.2976 22.5505C72.3885 22.8239 72.4241 23.1127 72.4022 23.4001C72.4267 23.6887 72.3925 23.9793 72.3019 24.2543C72.2114 24.5294 72.0662 24.7831 71.8752 25.0001C71.6841 25.2172 71.4512 25.3931 71.1905 25.5172C70.9299 25.6413 70.6469 25.711 70.3586 25.7221H70.3676ZM92.2194 15.7501H88.2129V27.0001H89.889V22.7341H92.2283C92.706 22.7686 93.1857 22.7038 93.6373 22.544C94.089 22.3841 94.503 22.1325 94.8536 21.8049C95.2042 21.4772 95.4837 21.0806 95.6749 20.6397C95.8661 20.1987 95.9648 19.723 95.9648 19.2421C95.9648 18.7612 95.8661 18.2855 95.6749 17.8446C95.4837 17.4036 95.2042 17.007 94.8536 16.6794C94.503 16.3517 94.089 16.1001 93.6373 15.9403C93.1857 15.7804 92.706 15.7157 92.2283 15.7501H92.2194ZM92.2194 21.1501H89.88V17.3161H92.2552C92.7651 17.3161 93.2541 17.5195 93.6146 17.8815C93.9752 18.2436 94.1777 18.7346 94.1777 19.2466C94.1777 19.7586 93.9752 20.2496 93.6146 20.6117C93.2541 20.9737 92.7651 21.1771 92.2552 21.1771L92.2194 21.1501ZM102.554 19.5301C101.943 19.4935 101.336 19.6367 100.806 19.9421C100.275 20.2475 99.8456 20.7017 99.569 21.2491L101.057 21.8701C101.204 21.5986 101.426 21.3758 101.696 21.2288C101.966 21.0818 102.274 21.0169 102.581 21.0421C102.793 21.0172 103.009 21.035 103.215 21.0946C103.421 21.1542 103.612 21.2544 103.779 21.3892C103.946 21.5241 104.085 21.691 104.187 21.8802C104.289 22.0694 104.352 22.2771 104.373 22.4911V22.6081C103.835 22.3219 103.235 22.1735 102.625 22.1761C101.021 22.1761 99.3987 23.0761 99.3987 24.7051C99.4146 25.0525 99.4996 25.3931 99.6487 25.7069C99.798 26.0206 100.008 26.3012 100.267 26.5319C100.526 26.7627 100.829 26.9389 101.157 27.0502C101.485 27.1616 101.832 27.2057 102.177 27.1801C102.599 27.2105 103.022 27.1263 103.401 26.9363C103.778 26.7463 104.099 26.4574 104.328 26.1001H104.382V27.0001H105.995V22.6711C105.995 20.7001 104.508 19.5571 102.599 19.5571L102.554 19.5301ZM102.347 25.6951C101.8 25.6951 101.039 25.4161 101.039 24.7411C101.039 23.8411 101.989 23.5441 102.832 23.5441C103.364 23.5309 103.89 23.6615 104.355 23.9221C104.299 24.4094 104.069 24.8599 103.709 25.1906C103.349 25.5214 102.881 25.7102 102.392 25.7221L102.347 25.6951ZM111.875 19.8001L109.957 24.6781H109.903L107.913 19.8001H106.121L109.106 26.6221L107.402 30.4111H109.15L113.739 19.8001H111.875ZM96.8084 27.0001H98.4844V15.7501H96.8084V27.0001Z" fill="white"/>
<path d="M10.3249 6.78614C10.0328 7.13814 9.88535 7.58876 9.91263 8.04614V27.9541C9.88535 28.4115 10.0328 28.8621 10.3249 29.2141L10.3877 29.2771L21.4928 18.1351V17.8741L10.3877 6.72314L10.3249 6.78614Z" fill="url(#paint0_linear)"/>
<path d="M25.1678 21.8522L21.4929 18.1352V17.8743L25.1678 14.1482L25.2484 14.1933L29.6492 16.7042C30.904 17.4152 30.904 18.5853 29.6492 19.3053L25.2663 21.8073L25.1678 21.8522Z" fill="url(#paint1_linear)"/>
<path d="M25.2755 21.7982L21.4931 18.0002L10.3252 29.2142C10.581 29.44 10.9072 29.5689 11.2476 29.5788C11.588 29.5886 11.9211 29.4788 12.1895 29.2682L25.2844 21.7982" fill="url(#paint2_linear)"/>
<path d="M25.2757 14.2023L12.1807 6.73233C11.9124 6.52174 11.5792 6.41189 11.2388 6.42175C10.8984 6.43161 10.5722 6.56057 10.3164 6.78633L21.4933 18.0003L25.2757 14.2023Z" fill="url(#paint3_linear)"/>
<path opacity="0.2" d="M25.1679 21.7173L12.1805 29.1423C11.9217 29.3366 11.6073 29.4416 11.2842 29.4416C10.9612 29.4416 10.6467 29.3366 10.388 29.1423L10.3252 29.2053L10.388 29.2683C10.6461 29.464 10.9608 29.5699 11.2842 29.5699C11.6077 29.5699 11.9223 29.464 12.1805 29.2683L25.2755 21.7983L25.1679 21.7173Z" fill="black"/>
<path opacity="0.12" d="M10.3252 29.0884C10.0329 28.7364 9.88534 28.2858 9.91264 27.8284V27.9634C9.88534 28.4208 10.0329 28.8714 10.3252 29.2234L10.388 29.1604L10.3252 29.0884Z" fill="black"/>
<path opacity="0.12" d="M29.6491 19.1702L25.1677 21.7172L25.2484 21.7982L29.6491 19.2962C29.8989 19.1784 30.1132 18.9966 30.2706 18.769C30.4279 18.5415 30.5228 18.2763 30.5455 18.0002C30.4951 18.251 30.3881 18.4869 30.2327 18.6898C30.0773 18.8926 29.8777 19.0569 29.6491 19.1702Z" fill="black"/>
<path opacity="0.25" d="M12.1802 6.85819L29.649 16.8301C29.8776 16.9434 30.0772 17.1078 30.2326 17.3106C30.3879 17.5134 30.4949 17.7493 30.5453 18.0001C30.5226 17.7241 30.4278 17.4589 30.2705 17.2313C30.113 17.0038 29.8988 16.8219 29.649 16.7041L12.1802 6.73219C10.9253 6.02119 9.90356 6.61519 9.90356 8.05519V8.19019C9.93046 6.74119 10.9343 6.14719 12.1802 6.85819Z" fill="white"/>
<path d="M38.7109 12.8432H38.0476V11.0432H38.6123C38.8698 10.7693 39.0642 10.4419 39.1819 10.0842C39.2995 9.72661 39.3376 9.34735 39.2934 8.97329V6.30029H42.8786V11.0342H43.4791V12.8342H42.8159V11.7002H38.7109V12.8432ZM39.9567 9.00029C39.9986 9.72626 39.8204 10.4479 39.4459 11.0702H42.1347V6.96629H39.9567V9.00029Z" fill="white" stroke="white" stroke-width="0.2" stroke-miterlimit="10"/>
<path d="M48.8388 10.9983C48.3148 11.5215 47.6059 11.8152 46.867 11.8152C46.128 11.8152 45.4191 11.5215 44.8951 10.9983C44.3858 10.4569 44.1021 9.74052 44.1021 8.99582C44.1021 8.25113 44.3858 7.53465 44.8951 6.99332C45.1534 6.73209 45.4605 6.52476 45.7989 6.38328C46.1374 6.24179 46.5004 6.16895 46.867 6.16895C47.2335 6.16895 47.5965 6.24179 47.9349 6.38328C48.2733 6.52476 48.5806 6.73209 48.8388 6.99332C49.3502 7.53362 49.6352 8.25048 49.6352 8.99582C49.6352 9.74116 49.3502 10.458 48.8388 10.9983ZM45.406 10.5483C45.7941 10.9363 46.3194 11.1541 46.867 11.1541C47.4146 11.1541 47.9399 10.9363 48.3279 10.5483C48.7108 10.1244 48.923 9.57261 48.923 9.00031C48.923 8.42801 48.7108 7.87621 48.3279 7.45232C47.9399 7.06431 47.4146 6.84647 46.867 6.84647C46.3194 6.84647 45.7941 7.06431 45.406 7.45232C45.0231 7.87621 44.811 8.42801 44.811 9.00031C44.811 9.57261 45.0231 10.1244 45.406 10.5483Z" fill="white" stroke="white" stroke-width="0.2" stroke-miterlimit="10"/>
<path d="M53.1148 11.8171C52.7448 11.8245 52.3771 11.7566 52.034 11.6175C51.6907 11.4785 51.3791 11.2711 51.1178 11.0079C50.8566 10.7447 50.651 10.4311 50.5137 10.0861C50.3762 9.74107 50.3098 9.37166 50.3184 9.00014C50.3098 8.62863 50.3762 8.25922 50.5137 7.91416C50.651 7.5691 50.8566 7.25554 51.1178 6.99234C51.3791 6.72915 51.6907 6.52178 52.034 6.38271C52.3771 6.24364 52.7448 6.17576 53.1148 6.18314C53.4899 6.17382 53.8621 6.24995 54.2036 6.40583C54.5451 6.56171 54.8471 6.79328 55.0866 7.08314L54.6027 7.55114C54.4256 7.32546 54.1974 7.14561 53.9369 7.02662C53.6766 6.90762 53.3915 6.85294 53.1058 6.86714C52.8307 6.85996 52.557 6.9089 52.3013 7.011C52.0455 7.1131 51.8131 7.26624 51.618 7.46114C51.2294 7.88756 51.0138 8.44463 51.0138 9.02264C51.0138 9.60066 51.2294 10.1577 51.618 10.5841C51.8131 10.779 52.0455 10.9321 52.3013 11.0342C52.557 11.1363 52.8307 11.1853 53.1058 11.1781C53.4213 11.1753 53.7323 11.1019 54.0159 10.9634C54.2996 10.8248 54.549 10.6245 54.746 10.3771L55.2301 10.8631C54.9861 11.1602 54.6801 11.3999 54.3337 11.5651C53.9511 11.7391 53.5348 11.8252 53.1148 11.8171Z" fill="white" stroke="white" stroke-width="0.2" stroke-miterlimit="10"/>
<path d="M58.0437 11.7002H57.3536V6.96629H55.8479V6.30029H59.5406V6.96629H58.0437V11.7002Z" fill="white" stroke="white" stroke-width="0.2" stroke-miterlimit="10"/>
<path d="M64.2914 6.30029L62.2568 10.8542C62.1754 11.1236 62.0126 11.361 61.791 11.5335C61.5696 11.706 61.3001 11.8051 61.02 11.8172C60.8346 11.8149 60.6517 11.7751 60.4821 11.7002L60.6614 11.0612C60.7704 11.1249 60.8939 11.1591 61.02 11.1602C61.1517 11.1702 61.2832 11.1388 61.3963 11.0702C61.5044 10.9785 61.5877 10.8608 61.6384 10.7282L61.8356 10.2962L60.043 6.30929H60.8586L62.1851 9.40529L63.4758 6.30029H64.2914Z" fill="white" stroke="white" stroke-width="0.2" stroke-miterlimit="10"/>
<path d="M65.0715 11.7002V6.30029H68.9615V11.7002H68.2712V6.96629H65.7617V11.7002H65.0715Z" fill="white" stroke="white" stroke-width="0.2" stroke-miterlimit="10"/>
<path d="M70.189 11.7002V6.30029H70.8791V8.61329H73.568V6.30029H74.2581V11.7002H73.568V9.26129H70.8791V11.7002H70.189Z" fill="white" stroke="white" stroke-width="0.2" stroke-miterlimit="10"/>
<path d="M79.8957 10.9983C79.3718 11.5215 78.6629 11.8152 77.9239 11.8152C77.185 11.8152 76.476 11.5215 75.952 10.9983C75.4427 10.4569 75.1589 9.74052 75.1589 8.99582C75.1589 8.25113 75.4427 7.53465 75.952 6.99332C76.2103 6.73209 76.5175 6.52476 76.8559 6.38328C77.1944 6.24179 77.5573 6.16895 77.9239 6.16895C78.2905 6.16895 78.6534 6.24179 78.9918 6.38328C79.3302 6.52476 79.6375 6.73209 79.8957 6.99332C80.4071 7.53362 80.6922 8.25048 80.6922 8.99582C80.6922 9.74116 80.4071 10.458 79.8957 10.9983ZM76.4629 10.5483C76.8509 10.9363 77.3763 11.1541 77.9239 11.1541C78.4715 11.1541 78.9968 10.9363 79.3849 10.5483C79.7678 10.1244 79.9799 9.57261 79.9799 9.00031C79.9799 8.42801 79.7678 7.87621 79.3849 7.45232C78.9968 7.06431 78.4715 6.84647 77.9239 6.84647C77.3763 6.84647 76.8509 7.06431 76.4629 7.45232C76.0799 7.87621 75.8679 8.42801 75.8679 9.00031C75.8679 9.57261 76.0799 10.1244 76.4629 10.5483Z" fill="white" stroke="white" stroke-width="0.2" stroke-miterlimit="10"/>
<path d="M83.5081 11.7003V6.30033H85.453C85.8568 6.29267 86.2482 6.44085 86.5464 6.71433C86.6963 6.84484 86.8156 7.00681 86.8962 7.18877C86.9767 7.37073 87.0164 7.56824 87.0125 7.76733C87.0168 8.00723 86.9479 8.24272 86.8154 8.44233C86.6838 8.63621 86.5005 8.78903 86.2866 8.88333C86.5465 8.96975 86.7745 9.13284 86.9408 9.35133C87.1131 9.57183 87.2049 9.84505 87.2008 10.1253C87.2053 10.3328 87.1643 10.5387 87.0807 10.7285C86.997 10.9183 86.8728 11.0872 86.7167 11.2233C86.4047 11.5124 85.994 11.6702 85.5695 11.6643L83.5081 11.7003ZM84.1982 8.61333H85.453C85.5702 8.61824 85.687 8.59743 85.7953 8.55236C85.9037 8.50728 86.001 8.43902 86.0804 8.35233C86.1597 8.28007 86.2238 8.19251 86.2687 8.09486C86.3137 7.99721 86.3386 7.89148 86.3418 7.78397C86.3452 7.67646 86.327 7.56937 86.2882 7.4691C86.2494 7.36882 86.1909 7.27742 86.1163 7.20033C86.0413 7.11525 85.9488 7.04777 85.8449 7.00266C85.7412 6.95756 85.6287 6.93593 85.5157 6.93933H84.234L84.1982 8.61333ZM84.1982 11.0343H85.5875C85.7088 11.0384 85.8296 11.0155 85.9412 10.9673C86.0527 10.919 86.1523 10.8466 86.2327 10.7553C86.3908 10.5907 86.4805 10.3719 86.4838 10.1433C86.4838 9.90463 86.3893 9.67571 86.2212 9.50693C86.0531 9.33815 85.8251 9.24333 85.5875 9.24333H84.2251L84.1982 11.0343Z" fill="white" stroke="white" stroke-width="0.2" stroke-miterlimit="10"/>
<defs>
<linearGradient id="paint0_linear" x1="20.5068" y1="7.83914" x2="5.40501" y2="22.8789" gradientUnits="userSpaceOnUse">
<stop stop-color="#00A0FF"/>
<stop offset="0.01" stop-color="#00A1FF"/>
<stop offset="0.26" stop-color="#00BEFF"/>
<stop offset="0.51" stop-color="#00D2FF"/>
<stop offset="0.76" stop-color="#00DFFF"/>
<stop offset="1" stop-color="#00E3FF"/>
</linearGradient>
<linearGradient id="paint1_linear" x1="31.2894" y1="18.0002" x2="9.60801" y2="18.0002" gradientUnits="userSpaceOnUse">
<stop stop-color="#FFE000"/>
<stop offset="0.41" stop-color="#FFBD00"/>
<stop offset="0.78" stop-color="#FFA500"/>
<stop offset="1" stop-color="#FF9C00"/>
</linearGradient>
<linearGradient id="paint2_linear" x1="23.2229" y1="20.0702" x2="2.73912" y2="40.4609" gradientUnits="userSpaceOnUse">
<stop stop-color="#FF3A44"/>
<stop offset="1" stop-color="#C31162"/>
</linearGradient>
<linearGradient id="paint3_linear" x1="7.51099" y1="0.162334" x2="16.6549" y2="9.26865" gradientUnits="userSpaceOnUse">
<stop stop-color="#32A071"/>
<stop offset="0.07" stop-color="#2DA771"/>
<stop offset="0.48" stop-color="#15CF74"/>
<stop offset="0.8" stop-color="#06E775"/>
<stop offset="1" stop-color="#00F076"/>
</linearGradient>
</defs>
</svg>
